<svg width="32" height="32" viewBox="0 0 32 32" fill="none" xmlns="http://www.w3.org/2000/svg">
  <!-- Background with gradient -->
  <defs>
    <linearGradient id="bgGradient" x1="0%" y1="0%" x2="100%" y2="100%">
      <stop offset="0%" style="stop-color:#667eea;stop-opacity:1" />
      <stop offset="100%" style="stop-color:#764ba2;stop-opacity:1" />
    </linearGradient>
    <linearGradient id="personGradient" x1="0%" y1="0%" x2="100%" y2="100%">
      <stop offset="0%" style="stop-color:#ffffff;stop-opacity:0.95" />
      <stop offset="100%" style="stop-color:#f0f0f0;stop-opacity:0.9" />
    </linearGradient>
    <filter id="glow" x="-50%" y="-50%" width="200%" height="200%">
      <feGaussianBlur stdDeviation="1" result="coloredBlur"/>
      <feMerge> 
        <feMergeNode in="coloredBlur"/>
        <feMergeNode in="SourceGraphic"/>
      </feMerge>
    </filter>
  </defs>
  
  <!-- Background circle -->
  <circle cx="16" cy="16" r="16" fill="url(#bgGradient)"/>
  
  <!-- Team collaboration icon - three people -->
  <!-- Central person (larger, in front) -->
  <g filter="url(#glow)">
    <!-- Head -->
    <circle cx="16" cy="10" r="3.5" fill="url(#personGradient)"/>
    <!-- Body -->
    <ellipse cx="16" cy="18" rx="4" ry="5" fill="url(#personGradient)"/>
  </g>
  
  <!-- Left person (behind, smaller) -->
  <g filter="url(#glow)">
    <!-- Head -->
    <circle cx="10" cy="12" r="2.5" fill="url(#personGradient)" opacity="0.8"/>
    <!-- Body -->
    <ellipse cx="10" cy="19" rx="3" ry="4" fill="url(#personGradient)" opacity="0.8"/>
  </g>
  
  <!-- Right person (behind, smaller) -->
  <g filter="url(#glow)">
    <!-- Head -->
    <circle cx="22" cy="12" r="2.5" fill="url(#personGradient)" opacity="0.8"/>
    <!-- Body -->
    <ellipse cx="22" cy="19" rx="3" ry="4" fill="url(#personGradient)" opacity="0.8"/>
  </g>
  
  <!-- Connection lines between team members -->
  <path d="M10 12 L16 10 L22 12" stroke="#ffffff" stroke-width="0.8" opacity="0.6" fill="none"/>
  <path d="M10 19 L16 18 L22 19" stroke="#ffffff" stroke-width="0.8" opacity="0.6" fill="none"/>
  
  <!-- Collaboration dots -->
  <circle cx="8" cy="24" r="1" fill="#ffffff" opacity="0.7"/>
  <circle cx="12" cy="24" r="1" fill="#ffffff" opacity="0.7"/>
  <circle cx="16" cy="24" r="1" fill="#ffffff" opacity="0.7"/>
  <circle cx="20" cy="24" r="1" fill="#ffffff" opacity="0.7"/>
  <circle cx="24" cy="24" r="1" fill="#ffffff" opacity="0.7"/>
  
  <!-- Subtle accent lines -->
  <rect x="4" y="4" width="24" height="0.5" rx="0.25" fill="#ffffff" opacity="0.3"/>
  <rect x="4" y="27.5" width="24" height="0.5" rx="0.25" fill="#ffffff" opacity="0.3"/>
</svg>
